<?xml version="1.0" encoding="utf-8"?>
<!-- Generator: Adobe Illustrator 26.0.2, SVG Export Plug-In . SVG Version: 6.00 Build 0)  -->
<svg version="1.1" id="Layer_1" xmlns="http://www.w3.org/2000/svg" xmlns:xlink="http://www.w3.org/1999/xlink" x="0px" y="0px"
	 viewBox="0 0 3600 2000" style="enable-background:new 0 0 3600 2000;" xml:space="preserve">
<style type="text/css">
	.st0{fill:#3C6D96;}
	.st1{fill:#4BB563;}
	.st2{fill:#F6C19D;}
	.st3{opacity:0.2;fill:#F6C19D;}
	.st4{fill:#9C75C4;}
	.st5{fill:#AC8CCE;}
	.st6{fill:#5B99E6;}
	.st7{fill:#2671D1;}
	.st8{fill:#5CB30B;}
	.st9{fill:#92CC5C;}
	.st10{fill:#141414;}
	.st11{fill:#F19A5E;}
	.st12{fill:#FFFFFF;}
	.st13{fill:#DAE7F7;}
	.st14{opacity:0.3;fill:#DAE7F7;}
	.st15{fill:#D0E1F5;}
	.st16{fill:#F3A875;}
	.st17{fill:#9369BF;}
	.st18{fill:#085FCC;}
	.st19{fill:#88B2E7;}
	.st20{fill:#669CDF;}
</style>
<rect class="st0" width="3600" height="2000"/>
<path class="st1" d="M3600,1470.6c-260.38,1.02-720.86,306.25-720.86,529.4H3600V1470.6z"/>
<path class="st1" d="M0,976.62c95.44,88.09,183.32,96.38,238.32,96.38c284,0,473-393,876-393c353,0,446,261.5,471.5,305
	s124.5,318.37,192,378.18c67.5,59.82,306.79,219.53,412.5,434.82c27.11,55.2,51,155,51,202H0V976.62z"/>
<path class="st2" d="M471.14,2000h416.76l34.57-93.08c12.25-32.97,37.31-59.48,69.35-73.98c30.18-13.66,70.8-38.45,110.18-82.65
	c76.63-86.02,117.29-178.29,117.29-178.29l-258.28-1.27c0,0,23.25-144.47-105.12-336.36c-13.74-20.54-19.99-45.19-17.85-69.8
	l12.17-139.94c0,0,87.23-97.48,33.71-218.43c0,0-51.18-70.86-71.48-44.92c0,0-154.59,368.13-168.67,422.87
	c-14.08,54.74-32.84,89.14-14.08,261.17c4.97,45.54,6.75,83.52,6.69,114.75c-0.12,59.95-13.51,119.13-39.15,173.32L471.14,2000z"/>
<path class="st3" d="M859.85,1761.2c-38.68-42.95-92.42-36.17-148.93-55.76c-56.51-19.59-74.64-160.83-74.64-160.83l-0.01-0.02
	c0.09,5.33,0.13,10.51,0.12,15.49c-0.12,59.95-13.51,119.13-39.15,173.32L471.14,2000h416.76l34.57-93.08
	c12.25-32.97,37.31-59.48,69.35-73.98c25.69-11.62,58.94-31.32,92.54-64.17C969.59,1817.02,898.54,1804.15,859.85,1761.2z"/>
<g>
	<path class="st4" d="M675.57,332.25c95.81,151.18,331.96,285.9,331.96,285.9s-187.72-15.24-280.88-136.56l33.78-27.98
		c0,0-26.85,2.6-49.34,5.19C690.37,424.44,676.95,382.76,675.57,332.25z"/>
	<path class="st5" d="M926.96,394.78c-14.57,6.61-36.12,16.68-36.12,16.68l20.77-29.84c-24.19-18.82-50.81-31.36-77.18-39.57
		c-10.69,15.57-23.26,32.97-23.26,32.97l-2.49-39.72c-70.7-15.23-133.11-3.05-133.11-3.05c95.81,151.18,331.96,285.9,331.96,285.9
		C1006.46,507.08,972.64,437.72,926.96,394.78z"/>
</g>
<g>
	<path class="st6" d="M640.39,545.56c28.18-16.56,56.78-25.49,84.56-29.13c8.37,9.56,18.64,20.79,18.64,20.79l0.57-22.5
		c106.79-5.12,196.83,62.14,196.83,62.14c-61.11,37.18-113.7,47.6-157.04,44.52c-2.73-7.86-6.62-19.58-6.62-19.58l-7.25,18.11
		c-20.8-2.96-39.24-8.99-55.2-16.38c3.84-9.39,7.88-20.13,7.88-20.13l-22.77,12.48C660.9,573.76,640.39,545.56,640.39,545.56z"/>
	<path class="st7" d="M783.96,621.39c-2.73-7.86-6.62-19.58-6.62-19.58l-7.25,18.11c-20.8-2.96-39.24-8.99-55.2-16.38
		c3.84-9.39,7.88-20.13,7.88-20.13l-22.77,12.48c-39.09-22.12-59.61-50.32-59.61-50.32c124.25-14.2,300.61,31.31,300.61,31.31
		C879.88,614.05,827.29,624.47,783.96,621.39z"/>
</g>
<g>
	<path class="st8" d="M1691.96,530.03l-9.01,67.9l48.23-35.22l147.61-75.41l-114.17,10.45c0,0-58.16,14.13-61.31,16.98
		C1700.16,517.58,1691.96,530.03,1691.96,530.03z"/>
	<polygon class="st9" points="1641.41,489.03 1878.79,487.3 1691.96,530.03 	"/>
	<polygon class="st9" points="1768.27,598.33 1706.07,548.37 1878.79,487.3 	"/>
</g>
<g>
	<g>
		<path class="st10" d="M1667.49,565.4c9.08-3.42,15.78-4.15,15.85-4.16l-0.45-4.21c-0.29,0.03-7.3,0.8-16.89,4.41L1667.49,565.4z"
			/>
	</g>
	<g>
		<path class="st10" d="M1517.9,943.54c9.82-4.97,19.07-10.34,27.48-15.95l2.35,3.53c-8.56,5.7-17.95,11.16-27.92,16.2
			L1517.9,943.54z M1570.4,908.13c7.97-7.28,15.15-15.13,21.33-23.32l3.38,2.55c-6.34,8.4-13.69,16.44-21.86,23.9L1570.4,908.13z
			 M1608.11,857.83c2.08-4.36,3.99-8.91,5.69-13.51c1.92-5.21,3.61-10.66,5.04-16.2l4.1,1.06c-1.46,5.67-3.2,11.26-5.17,16.6
			c-1.74,4.73-3.7,9.39-5.84,13.87L1608.11,857.83z M1625.23,765.12l4.24-0.1c0.26,11.51-0.08,22.07-1.04,32.27l-4.22-0.4
			C1625.16,786.86,1625.49,776.46,1625.23,765.12z M1619.2,701.58l4.19-0.6c1.78,12.4,3.04,22.54,3.99,31.9l-4.22,0.43
			C1622.23,724,1620.97,713.92,1619.2,701.58z M1614.46,669.66c-1.68-11.42-2.22-22.25-1.6-32.18l4.23,0.26
			c-0.6,9.64-0.07,20.17,1.56,31.28l0.04,0.25l-4.2,0.58L1614.46,669.66z M1619.79,605.63c4.27-10.43,10.46-19.53,18.4-27.04
			l2.91,3.08c-7.5,7.09-13.35,15.69-17.39,25.56L1619.79,605.63z"/>
	</g>
	<g>
		<path class="st10" d="M1474.31,966.41c5.46-1.89,10.83-3.88,15.98-5.91l-1.55-3.94c-5.1,2.01-10.42,3.98-15.82,5.85
			L1474.31,966.41z"/>
	</g>
</g>
<g>
	<path class="st11" d="M1452.33,515.83c0,0,88.27-59.08,108.43-20.16s-114.69,176.66-114.69,176.66L1452.33,515.83z"/>
	<path class="st11" d="M1452.33,773.26c0,0,88.27-59.08,108.43-20.16c20.16,38.92-114.69,176.66-114.69,176.66L1452.33,773.26z"/>
	<path class="st11" d="M1452.33,948.65c0,0,88.27-59.08,108.43-20.16c20.16,38.92-114.69,176.66-114.69,176.66L1452.33,948.65z"/>
</g>
<path class="st10" d="M1391.36,449.63H906.75c-36.09,0-65.35,29.25-65.35,65.35v806.43v183.98c0,36.38,29.57,65.35,65.35,65.35
	h484.61c36.08,0,65.35-29.24,65.35-65.35V698.96V514.98C1456.71,478.56,1427.1,449.63,1391.36,449.63z"/>
<path class="st3" d="M885.55,1282.39c0,0-87.65,214.57-79.15,255.14c8.5,40.57,61.69,94.82,192.2,76.74
	c130.51-18.08,220.71-42.26,220.71-42.26s5.45-289.58,0-304.27c-5.45-14.68-240.1-118.92-249.34-118.92
	C960.74,1148.82,885.55,1282.39,885.55,1282.39z"/>
<rect x="873.08" y="538.69" class="st12" width="551.95" height="942.98"/>
<g>
	<path class="st13" d="M1284.81,1181.94H1013.3c-18.93,0-34.28-15.35-34.28-34.28V788.07c0-18.93,15.35-34.27,34.27-34.27h271.52
		c18.93,0,34.27,15.35,34.27,34.27v359.59C1319.09,1166.6,1303.74,1181.94,1284.81,1181.94z"/>
	<g>
		<path class="st9" d="M1030.83,927.18l26.95,129.31c1.17,5.63,6,9.65,11.58,9.65h159.39c5.58,0,10.41-4.02,11.58-9.65l26.95-129.31
			H1030.83z M1078.36,1053.61c-3.6,0-6.53-2.92-6.53-6.53l-9.05-91.65c0-3.6,2.92-6.53,6.53-6.53c3.6,0,6.53,2.92,6.53,6.53
			l9.05,91.65C1084.88,1050.69,1081.96,1053.61,1078.36,1053.61z M1111.18,1053.61L1111.18,1053.61c-3.6,0-6.53-2.92-6.53-6.53
			l-3.62-91.65c0-3.6,2.92-6.53,6.53-6.53c3.6,0,6.53,2.92,6.53,6.53l3.62,91.65C1117.71,1050.69,1114.79,1053.61,1111.18,1053.61z
			 M1155.58,1047.08c0,3.6-2.92,6.53-6.53,6.53c-3.6,0-6.53-2.92-6.53-6.53v-91.65c0-3.6,2.92-6.53,6.53-6.53
			c3.6,0,6.53,2.92,6.53,6.53V1047.08z M1193.45,1047.08c0,3.6-2.92,6.53-6.53,6.53s-6.53-2.92-6.53-6.53l3.62-91.65
			c0-3.6,2.92-6.53,6.53-6.53c3.6,0,6.53,2.92,6.53,6.53L1193.45,1047.08z M1226.28,1047.08c0,3.6-2.92,6.53-6.53,6.53
			s-6.53-2.92-6.53-6.53l9.05-91.65c0-3.6,2.92-6.53,6.53-6.53c3.6,0,6.53,2.92,6.53,6.53L1226.28,1047.08z"/>
		<path class="st8" d="M1268.96,937.63h-239.82c-5.77,0-10.44-4.68-10.44-10.44l0,0c0-5.77,4.68-10.44,10.44-10.44h239.82
			c5.77,0,10.44,4.68,10.44,10.44l0,0C1279.41,932.95,1274.73,937.63,1268.96,937.63z"/>
		<path class="st9" d="M1079.51,917.53v-9.02c0-15.03,12.18-27.21,27.21-27.21h84.67c15.03,0,27.21,12.18,27.21,27.21v9.02
			c0,3.23,2.62,5.85,5.85,5.85l0,0c3.23,0,5.85-2.62,5.85-5.85v-9.02c0-21.49-17.42-38.91-38.91-38.91h-84.67
			c-21.49,0-38.91,17.42-38.91,38.91v9.02c0,3.23,2.62,5.85,5.85,5.85l0,0C1076.89,923.38,1079.51,920.76,1079.51,917.53z"/>
	</g>
</g>
<path class="st12" d="M1262.85,509.06h-226.69c-2.62,0-4.75-2.12-4.75-4.75v-2.32c0-2.62,2.12-4.75,4.75-4.75h226.69
	c2.62,0,4.75,2.12,4.75,4.75v2.32C1267.59,506.93,1265.47,509.06,1262.85,509.06z"/>
<path class="st2" d="M830.41,1109.08c0,0,3.33,12.38,10.86,18.47l8.95-102.92c0,0,64.17-71.71,48.67-168.43
	c-5.31-33.11-21.78-63.58-46.96-85.72c-14.38-12.64-30.17-21.08-39.47-9.19c0,0-72.7,173.12-122.93,299.57L830.41,1109.08z"/>
<g>
	<path class="st14" d="M1175.84,1527.11c0,14.97-12.14,27.11-27.11,27.11s-27.11-12.14-27.11-27.11s12.14-27.11,27.11-27.11
		S1175.84,1512.14,1175.84,1527.11z"/>
	<g>
		<path class="st13" d="M1156.82,1538.4h-16.17c-1.77,0-3.21-1.44-3.21-3.21v-16.17c0-1.77,1.44-3.21,3.21-3.21h16.17
			c1.77,0,3.21,1.44,3.21,3.21v16.17C1160.03,1536.96,1158.59,1538.4,1156.82,1538.4z M1140.65,1516.69c-1.29,0-2.34,1.05-2.34,2.34
			v16.17c0,1.29,1.05,2.34,2.34,2.34h16.17c1.29,0,2.34-1.05,2.34-2.34v-16.17c0-1.29-1.05-2.34-2.34-2.34H1140.65z"/>
	</g>
</g>
<rect x="873.08" y="1425.9" class="st15" width="551.95" height="55.78"/>
<rect x="873.08" y="538.69" class="st15" width="551.95" height="50.04"/>
<path class="st11" d="M825.53,862.96c20.09-9.24,30.57-61.51,34.33-85c-16.12-16.22-36.34-30.81-47.4-16.68
	c0,0-16.01,38.12-38.19,91.65C789.43,861.38,810.51,869.87,825.53,862.96z"/>
<path class="st10" d="M591.23,1754.08c44.1,27.09,186.07,108.11,332.87,125.38c8.6,1.01,14.65,8.89,12.11,15.71l-25.65,68.69
	c-1.7,4.54-6.81,7.2-12.54,6.5c-43.26-5.25-221.77-32.12-347.36-129.28c-4.27-3.31-6.08-8.32-4.48-12.6l26.17-70.1
	C574.81,1751.77,584.05,1749.67,591.23,1754.08z"/>
<path d="M578.34,1819.77l-0.49-0.18c-2.57-0.96-3.88-3.83-2.92-6.4l7.9-21.15c0.96-2.58,3.83-3.88,6.4-2.92l0.49,0.18
	c2.57,0.96,3.88,3.83,2.92,6.4l-7.89,21.15C583.78,1819.42,580.92,1820.73,578.34,1819.77z"/>
<path d="M604.75,1836.04l-0.49-0.18c-2.57-0.96-3.88-3.83-2.92-6.4l7.9-21.15c0.96-2.58,3.83-3.88,6.4-2.92l0.49,0.18
	c2.58,0.96,3.88,3.83,2.92,6.4l-7.89,21.15C610.19,1835.69,607.32,1837,604.75,1836.04z"/>
<path d="M631.19,1852.2l-0.48-0.18c-2.57-0.96-3.88-3.83-2.92-6.4l7.89-21.15c0.96-2.58,3.83-3.88,6.4-2.92l0.48,0.18
	c2.58,0.96,3.88,3.83,2.92,6.4l-7.9,21.15C636.64,1851.86,633.77,1853.16,631.19,1852.2z"/>
<path d="M658.41,1865.35l-0.49-0.18c-2.57-0.96-3.88-3.83-2.92-6.4l7.9-21.15c0.96-2.58,3.83-3.88,6.4-2.92l0.49,0.18
	c2.57,0.96,3.88,3.83,2.92,6.4l-7.89,21.15C663.85,1865,660.99,1866.31,658.41,1865.35z"/>
<path d="M685.19,1880.63l-0.49-0.18c-2.57-0.96-3.88-3.83-2.92-6.4l7.9-21.15c0.96-2.58,3.83-3.88,6.4-2.92l0.49,0.18
	c2.57,0.96,3.88,3.83,2.92,6.4l-7.89,21.15C690.63,1880.28,687.76,1881.59,685.19,1880.63z"/>
<path d="M713.15,1892.74l-0.49-0.18c-2.57-0.96-3.88-3.83-2.92-6.4l7.9-21.15c0.96-2.58,3.83-3.88,6.4-2.92l0.49,0.18
	c2.57,0.96,3.88,3.83,2.92,6.4l-7.89,21.15C718.59,1892.4,715.72,1893.71,713.15,1892.74z"/>
<path d="M741.66,1903.39l-0.49-0.18c-2.57-0.96-3.88-3.83-2.92-6.4l7.9-21.15c0.96-2.57,3.83-3.88,6.4-2.92l0.49,0.18
	c2.57,0.96,3.88,3.83,2.92,6.4l-7.89,21.15C747.1,1903.04,744.23,1904.35,741.66,1903.39z"/>
<path d="M770.71,1912.56l-0.49-0.18c-2.57-0.96-3.88-3.83-2.92-6.4l7.89-21.15c0.96-2.58,3.83-3.88,6.4-2.92l0.49,0.18
	c2.57,0.96,3.88,3.83,2.92,6.4l-7.89,21.15C776.16,1912.21,773.29,1913.52,770.71,1912.56z"/>
<path d="M800.95,1918.56l-0.49-0.18c-2.57-0.96-3.88-3.83-2.92-6.4l7.9-21.15c0.96-2.57,3.83-3.88,6.4-2.92l0.48,0.18
	c2.58,0.96,3.88,3.83,2.92,6.4l-7.9,21.15C806.39,1918.22,803.53,1919.53,800.95,1918.56z"/>
<path d="M830.4,1926.71l-0.49-0.18c-2.57-0.96-3.88-3.83-2.92-6.4l7.9-21.15c0.96-2.57,3.83-3.88,6.4-2.92l0.49,0.18
	c2.57,0.96,3.88,3.83,2.92,6.4l-7.9,21.15C835.84,1926.36,832.97,1927.67,830.4,1926.71z"/>
<path d="M860.96,1931.83l-0.49-0.18c-2.58-0.96-3.88-3.83-2.92-6.4l7.9-21.15c0.96-2.58,3.83-3.88,6.4-2.92l0.49,0.18
	c2.57,0.96,3.88,3.83,2.92,6.4l-7.89,21.15C866.41,1931.48,863.54,1932.79,860.96,1931.83z"/>
<path d="M891.57,1936.84l-0.48-0.18c-2.58-0.96-3.88-3.83-2.92-6.4l7.9-21.15c0.96-2.57,3.83-3.88,6.4-2.92l0.49,0.18
	c2.57,0.96,3.88,3.83,2.92,6.4l-7.9,21.15C897.02,1936.49,894.15,1937.8,891.57,1936.84z"/>
<path class="st5" d="M678.36,1913.14l0.12-0.32c-0.47-0.06-0.93-0.17-1.39-0.34l-34.74-12.97c-3.43-1.28-5.09-5.34-3.71-9.04
	l31.33-83.91c1.38-3.71,5.3-5.68,8.73-4.4l34.74,12.97c2.03,0.76,3.44,2.5,3.96,4.56c2.73,1.19,5.47,2.38,8.25,3.56
	c0.93-7.05-2.69-13.91-9.16-16.32l-34.74-12.97c-7.61-2.84-16.31,1.54-19.38,9.76l-31.33,83.9c-3.07,8.23,0.62,17.23,8.24,20.07
	l34.74,12.97c5.21,1.95,10.92,0.5,15-3.23C685.48,1916.04,681.93,1914.61,678.36,1913.14z"/>
<path class="st12" d="M670.74,1846.55l-15.11-5.64c-2.71-1.01-5.79,0.54-6.88,3.47c-1.09,2.93,0.22,6.12,2.93,7.13l15.11,5.64
	L670.74,1846.55z"/>
<g>
	<path class="st16" d="M1331.67,1159.75c0,0-74.55,6.25-77.15,26.07c-2.61,19.81,3.13,54.74,73.5,61.51h72.9
		c0,0-21.81-60.47-20.77-62.56C1381.19,1182.69,1331.67,1159.75,1331.67,1159.75z"/>
	<path class="st2" d="M1212.06,1455.26c-10.1,5.36-13.61,18.12-7.88,28.01c34.3,59.16,170.71,294.29,183.01,313.42
		c14.08,21.9,48.48,73.5,162.65,100.09C1664,1923.37,1710.92,2000,1710.92,2000h351.88c0,0-82.89-131.37-151.7-472.31
		c0,0-53.17-283.07-153.26-273.69c0,0-60.99-64.12-120.42-51.61c0,0-112.6-67.25-176.72-67.25l-154.02-182.02
		c-15.24-18.01-42.11-21.55-60.85-7.2c-6.03,4.61-10.63,10.71-11.9,18.76c-4.69,29.72,34.41,104.78,96.96,195.49
		c62.56,90.71,217.39,378.47,150.14,505.15c0,0-68.81-51.61-128.24-134.5C1303.01,1461.41,1244.47,1438.06,1212.06,1455.26z"/>
	<path class="st11" d="M1461.26,1135.22c20.44,17.49,39.59,36.47,57.68,56.41c24.44,26.59,55.28,66,73.39,96.45
		c22.84,37.64,37.91,70.65,45.04,112.1l-0.46,0.09c-8.21-38.94-29.64-80.88-48.32-109.85c-13.97-22.65-39.84-58.64-72.44-96.36
		c-16.38-18.89-37.15-41.21-55.21-58.49L1461.26,1135.22z"/>
	<path class="st11" d="M1636.41,1201.91c16.63,8.51,31.46,20.38,44.56,33.79c13.26,13.36,24.28,28.51,33.77,45.05
		c9.26,16.4,16.37,34.02,21.14,52.17c4.04,17.01,6.65,28.55,7.08,55.47l-0.47,0.04c-1.54-18.44-4.91-36.72-10.14-54.46
		c-5.28-17.17-12.7-35.61-21.69-50.91c-9-16.14-19.96-31.18-32.41-44.85c-11.77-12.89-27.18-26.8-42.07-35.89L1636.41,1201.91z"/>
	<path class="st11" d="M1756.54,1252.69c14.71,11.12,29.6,30.81,36.81,44.11c9.08,15.62,16.28,33.76,21.02,53.62
		c3.48,12.7,4.36,25.04,4.91,37.95l-0.46,0.06c-2.16-12.52-3.53-21.85-7.99-37.01c-6.83-22.98-12.2-34.8-21.36-52.51
		c-5.47-10.92-19.68-32.55-33.14-45.88L1756.54,1252.69z"/>
	<path class="st11" d="M1283.09,1528.07c3.12-15.83-15.33-40.94-32.07-59.89c-10.45-11.83-26.96-16.25-41.47-11.3
		c-8.11,6.01-10.58,17.38-5.36,26.39c9.22,15.9,25.81,44.51,45.39,78.21C1264.22,1554.02,1280.2,1542.72,1283.09,1528.07z"/>
	<path class="st11" d="M1297.87,1024.57c8.9-1.78,49.26-15.2,46.79-22.56l0,0l-39.81-47.05c-7.91-9.34-18.94-14.78-30.35-15.86l0,0
		h0c-0.06-0.01-0.13-0.01-0.19-0.02c-0.32-0.03-1.05-0.08-2.07-0.08c-5.34,0.01-18.48,1.52-21.37,15.98
		c-2.85,14.27,20.77,48.97,31.19,63.4C1285.66,1023.36,1291.84,1025.77,1297.87,1024.57z"/>
	<path class="st3" d="M1710.92,2000h351.88c0,0-54.34-86.14-111.56-299.91c-25.11,157.41-163.63,148.33-218.6,157.06
		c-63.29,10.06-308.99-41.17-343.42-57.31c15.31,23.36,51.6,71.56,160.61,96.94C1664,1923.37,1710.92,2000,1710.92,2000z"/>
	<path class="st3" d="M1349.49,1188.71c68.99,110.86,192.78,365.51,131.53,476.61l40.65,40.12c0,0,102.7-113.78-60.73-364.69
		C1422.91,1282.37,1385.11,1231.85,1349.49,1188.71z"/>
</g>
<g>
	<g>
		<path class="st10" d="M513.94,1128.19c-7.35-6.34-13.37-9.35-13.43-9.38l1.87-3.8c0.27,0.13,6.58,3.27,14.33,9.97L513.94,1128.19z
			"/>
	</g>
	<g>
		<path class="st10" d="M520.66,1537.61c-7.61-8.18-14.55-16.54-20.61-24.84l3.42-2.5c5.96,8.17,12.79,16.4,20.29,24.46
			L520.66,1537.61z M482.96,1485.32c-5.09-9.82-9.21-19.91-12.26-29.98l4.06-1.23c2.97,9.82,7,19.67,11.97,29.25L482.96,1485.32z
			 M464.48,1423.52c-0.46-4.94-0.69-10-0.69-15.04c0-5.7,0.3-11.54,0.88-17.37l4.22,0.42c-0.57,5.69-0.86,11.39-0.86,16.94
			c0,4.91,0.23,9.83,0.67,14.65L464.48,1423.52z M474.63,1360.39l-4.1-1.08c2.62-9.91,5.94-19.93,10.16-30.64l3.94,1.55
			C480.48,1340.78,477.21,1350.65,474.63,1360.39z M497.56,1301.07l-3.81-1.86c4.12-8.46,8.81-17.53,14.76-28.56l3.73,2.01
			C506.32,1283.65,501.65,1292.67,497.56,1301.07z M527.62,1244.52l-3.74-1.99l0.12-0.22c5.37-9.87,9.5-19.57,12.27-28.82l4.06,1.21
			c-2.85,9.53-7.09,19.51-12.62,29.64L527.62,1244.52z M540.58,1182.57c-0.38-10.66-2.9-20.75-7.49-29.99l3.8-1.89
			c4.86,9.79,7.53,20.46,7.93,31.73L540.58,1182.57z"/>
	</g>
	<g>
		<path class="st10" d="M556.78,1571.24c-4.47-3.66-8.82-7.39-12.96-11.07l2.82-3.17c4.09,3.64,8.4,7.33,12.82,10.96L556.78,1571.24
			z"/>
	</g>
</g>
<g>
	<path class="st17" d="M486.03,1056.48l-5.61,68.26l-39.65-44.65L312.53,975.06l109.35,34.45c0,0,53.84,26.16,56.31,29.61
		S486.03,1056.48,486.03,1056.48z"/>
	<polygon class="st5" points="544.14,1027.15 312.53,975.06 486.03,1056.48 	"/>
	<polygon class="st5" points="396.96,1107.03 468.35,1071.41 312.53,975.06 	"/>
</g>
<g>
	<g>
		<g>
			<path class="st18" d="M1237.43,726.71h-0.45c-24.19,0-43.8-19.61-43.8-43.8v-32.85h88.05v32.85
				C1281.23,707.1,1261.62,726.71,1237.43,726.71z"/>
			<path class="st19" d="M1149.38,726.71h-0.45c-24.19,0-43.8-19.61-43.8-43.8v-32.85h88.05v32.85
				C1193.18,707.1,1173.57,726.71,1149.38,726.71z"/>
			<path class="st18" d="M1061.33,726.71h-0.45c-24.19,0-43.8-19.61-43.8-43.8v-32.85h88.05v32.85
				C1105.13,707.1,1085.52,726.71,1061.33,726.71z"/>
			<path class="st19" d="M973.28,726.71h-0.45c-24.19,0-43.8-19.61-43.8-43.8v-32.85h88.05v32.85
				C1017.08,707.1,997.47,726.71,973.28,726.71z"/>
			<path class="st18" d="M885.24,726.71h-0.45c-24.19,0-43.8-19.61-43.8-43.8v-32.85h88.05v32.85
				C929.04,707.1,909.43,726.71,885.24,726.71z"/>
			<path class="st19" d="M1501.37,726.71h-0.45c-24.19,0-43.8-19.61-43.8-43.8v-32.85h88.05v32.85
				C1545.17,707.1,1525.56,726.71,1501.37,726.71z"/>
			<path class="st18" d="M1413.32,726.71h-0.45c-24.19,0-43.8-19.61-43.8-43.8v-32.85h88.05v32.85
				C1457.12,707.1,1437.51,726.71,1413.32,726.71z"/>
			<path class="st19" d="M1325.47,726.71h-0.45c-24.19,0-43.8-19.61-43.8-43.8v-32.85h88.05v32.85
				C1369.27,707.1,1349.66,726.71,1325.47,726.71z"/>
			<path class="st19" d="M797.19,726.71h-0.45c-24.19,0-43.8-19.61-43.8-43.8v-32.85h88.05v32.85
				C840.99,707.1,821.38,726.71,797.19,726.71z"/>
		</g>
		<g>
			<polygon class="st13" points="1180.46,538.69 1117.85,538.69 1105.13,650.06 1193.18,650.06 			"/>
			<polygon class="st20" points="1117.85,538.69 1055.25,538.69 1017.08,650.06 1105.13,650.06 			"/>
			<polygon class="st13" points="1055.25,538.69 992.65,538.69 929.04,650.06 1017.08,650.06 			"/>
			<polygon class="st20" points="992.65,538.69 930.05,538.69 840.99,650.06 929.04,650.06 			"/>
			<polygon class="st13" points="930.05,538.69 867.45,538.69 752.94,650.06 840.99,650.06 			"/>
			<polygon class="st13" points="1430.44,538.69 1367.84,538.69 1457.12,650.06 1545.17,650.06 			"/>
			<polygon class="st20" points="1368.15,538.69 1305.55,538.69 1369.07,650.06 1457.12,650.06 			"/>
			<polygon class="st13" points="1305.55,538.69 1242.95,538.69 1281.23,650.06 1369.27,650.06 			"/>
			<polygon class="st20" points="1242.95,538.69 1180.35,538.69 1193.18,650.06 1281.23,650.06 			"/>
		</g>
	</g>
</g>
<path class="st9" d="M1293.61,1333.58h-276.05c-21.21,0-38.41-17.2-38.41-38.41v0c0-21.21,17.2-38.41,38.41-38.41h276.05
	c21.21,0,38.41,17.2,38.41,38.41v0C1332.02,1316.38,1314.82,1333.58,1293.61,1333.58z"/>
</svg>
